<?xml version="1.0" encoding="UTF-8"?>
<svg id="Layer_1" xmlns="http://www.w3.org/2000/svg" version="1.1" viewBox="0 0 76 75.7">
  <!-- Generator: Adobe Illustrator 29.0.1, SVG Export Plug-In . SVG Version: 2.1.0 Build 192)  -->
  <defs>
    <style>
      .st0 {
        fill: #7644e1;
      }

      .st1 {
        fill: none;
        stroke: #7644e1;
        stroke-linecap: round;
        stroke-linejoin: round;
        stroke-width: 4px;
      }

      .st2 {
        fill: #fff;
        fill-opacity: .9;
      }
    </style>
  </defs>
  <g>
    <rect class="st0" width="76" height="76" rx="14" ry="14"/>
    <rect class="st2" width="76" height="76" rx="14" ry="14"/>
  </g>
  <path class="st1" d="M56.7,38v23.3H19.3v-23.3"/>
  <path class="st1" d="M61.3,26.3H14.7v11.7h46.7v-11.7Z"/>
  <path class="st1" d="M38,61.3V26.3"/>
  <path class="st1" d="M38,26.3h-10.5c-1.5,0-3-.6-4.1-1.7-1.1-1.1-1.7-2.6-1.7-4.1s.6-3,1.7-4.1c1.1-1.1,2.6-1.7,4.1-1.7,8.2,0,10.5,11.7,10.5,11.7Z"/>
  <path class="st1" d="M38,26.3h10.5c1.5,0,3-.6,4.1-1.7,1.1-1.1,1.7-2.6,1.7-4.1s-.6-3-1.7-4.1c-1.1-1.1-2.6-1.7-4.1-1.7-8.2,0-10.5,11.7-10.5,11.7Z"/>
</svg>